HIERARCHY
ROOT joint_0
{
	OFFSET 0.000000 0.000000 0.000000
	CHANNELS 6 Xposition Yposition Zposition Zrotation Yrotation Xrotation 
	JOINT joint_1
	{
		OFFSET 6.579712 -2.778931 100.531982
		CHANNELS 3 Zrotation Yrotation Xrotation
		JOINT joint_2
		{
			OFFSET -3.313232 -1.302856 91.974976
			CHANNELS 3 Zrotation Yrotation Xrotation
			JOINT joint_3
			{
				OFFSET -3.421509 -1.641846 91.864014
				CHANNELS 3 Zrotation Yrotation Xrotation
				JOINT joint_4
				{
					OFFSET 7.697388 -4.642578 123.278931
					CHANNELS 3 Zrotation Yrotation Xrotation
					JOINT joint_5
					{
						OFFSET 24.842529 -5.941528 79.695068
						CHANNELS 3 Zrotation Yrotation Xrotation
						End Site
						{
							OFFSET 0.000000 0.000000 0.000000
						}
					}
				}
				JOINT joint_6
				{
					OFFSET -0.159668 -29.112976 68.364014
					CHANNELS 3 Zrotation Yrotation Xrotation
					JOINT joint_7
					{
						OFFSET -18.356079 -115.987061 -20.069092
						CHANNELS 3 Zrotation Yrotation Xrotation
						JOINT joint_8
						{
							OFFSET 31.719482 -11.733276 -267.170898
							CHANNELS 3 Zrotation Yrotation Xrotation
							JOINT joint_9
							{
								OFFSET 29.329956 -5.879517 -234.654053
								CHANNELS 3 Zrotation Yrotation Xrotation
								End Site
								{
									OFFSET 0.000000 0.000000 0.000000
								}
							}
						}
					}
				}
				JOINT joint_10
				{
					OFFSET 8.802979 23.897949 69.798950
					CHANNELS 3 Zrotation Yrotation Xrotation
					JOINT joint_11
					{
						OFFSET 21.159058 115.524292 -19.981934
						CHANNELS 3 Zrotation Yrotation Xrotation
						JOINT joint_12
						{
							OFFSET 18.809204 5.403442 -268.593018
							CHANNELS 3 Zrotation Yrotation Xrotation
							JOINT joint_13
							{
								OFFSET 20.807861 0.421265 -235.639038
								CHANNELS 3 Zrotation Yrotation Xrotation
								End Site
								{
									OFFSET 0.000000 0.000000 0.000000
								}
							}
						}
					}
				}
			}
		}
	}
	JOINT joint_14
	{
		OFFSET -9.713379 -79.513916 -99.348022
		CHANNELS 3 Zrotation Yrotation Xrotation
		JOINT joint_15
		{
			OFFSET -40.607788 -6.518372 -502.938019
			CHANNELS 3 Zrotation Yrotation Xrotation
			JOINT joint_16
			{
				OFFSET -19.807617 -7.437378 -399.590012
				CHANNELS 3 Zrotation Yrotation Xrotation
				JOINT joint_17
				{
					OFFSET 171.701660 -44.751282 -77.782000
					CHANNELS 3 Zrotation Yrotation Xrotation
					End Site
					{
						OFFSET 0.000000 0.000000 0.000000
					}
				}
			}
		}
	}
	JOINT joint_18
	{
		OFFSET 17.854858 79.618652 -98.128052
		CHANNELS 3 Zrotation Yrotation Xrotation
		JOINT joint_19
		{
			OFFSET -24.848877 16.861816 -503.722992
			CHANNELS 3 Zrotation Yrotation Xrotation
			JOINT joint_20
			{
				OFFSET -30.162476 14.470093 -398.750008
				CHANNELS 3 Zrotation Yrotation Xrotation
				JOINT joint_21
				{
					OFFSET 176.096680 -10.987549 -80.021000
					CHANNELS 3 Zrotation Yrotation Xrotation
					End Site
					{
						OFFSET 0.000000 0.000000 0.000000
					}
				}
			}
		}
	}
}
MOTION
Frames: 13
Frame Time: 0.016667
-959.720886 1012.260742 1097.907959 30.110292 -0.287339 -0.006780 0.306275 -0.941488 -0.536125 0.370083 0.130718 0.126581 0.357439 -0.209113 -0.094123 0.591018 0.852026 -1.946944 0.000000 0.000000 0.000000 -0.986149 2.714325 -0.008052 -0.299242 2.934779 -2.145706 -0.200970 0.212611 -1.397240 0.000000 0.000000 0.000000 1.142700 0.384023 1.079588 -0.255607 0.703214 -1.900718 0.290681 0.526508 5.803509 0.000000 0.000000 0.000000 2.778647 0.630336 -0.294107 2.729811 0.590531 0.006276 2.729803 -1.136080 0.950153 0.000000 0.000000 0.000000 -5.753973 -0.268484 -0.610251 -5.708536 1.330251 -0.471812 -5.638558 -0.736454 -2.605449 0.000000 0.000000 0.000000 
-959.512512 1012.350098 1097.889038 30.122119 -0.284743 -0.006652 0.308623 -0.940473 -0.536366 0.372345 0.130030 0.126785 0.359689 -0.209465 -0.094212 0.589759 0.846870 -1.943465 0.000000 0.000000 0.000000 -0.997254 2.712683 -0.000172 -0.300598 2.934713 -2.158739 -0.200511 0.208188 -1.397087 0.000000 0.000000 0.000000 1.134481 0.384392 1.087833 -0.255482 0.709294 -1.914960 0.292449 0.550703 5.804076 0.000000 0.000000 0.000000 2.774377 0.641670 -0.290256 2.725805 0.590976 0.004661 2.725967 -1.142970 0.946618 0.000000 0.000000 0.000000 -5.757149 -0.262256 -0.612598 -5.711921 1.340664 -0.466102 -5.642505 -0.755859 -2.608400 0.000000 0.000000 0.000000 
-959.305298 1012.428955 1097.871948 30.134542 -0.281021 -0.006565 0.310396 -0.940028 -0.536615 0.374051 0.129717 0.126933 0.361426 -0.208411 -0.093764 0.588222 0.840725 -1.939095 0.000000 0.000000 0.000000 -1.006658 2.711543 0.007480 -0.301874 2.935485 -2.172509 -0.199596 0.199647 -1.396719 0.000000 0.000000 0.000000 1.129304 0.381911 1.097019 -0.255666 0.712234 -1.929798 0.293678 0.568044 5.805660 0.000000 0.000000 0.000000 2.769787 0.651524 -0.286040 2.721520 0.590922 0.003245 2.721784 -1.147469 0.943548 0.000000 0.000000 0.000000 -5.760575 -0.258257 -0.614615 -5.715475 1.352397 -0.459740 -5.646607 -0.774625 -2.611379 0.000000 0.000000 0.000000 
-959.096802 1012.498901 1097.854004 30.148781 -0.276591 -0.005932 0.311895 -0.940876 -0.536754 0.375542 0.129013 0.127561 0.362868 -0.208929 -0.094491 0.586587 0.836926 -1.933909 0.000000 0.000000 0.000000 -1.014863 2.710915 0.014576 -0.302976 2.936378 -2.183046 -0.199240 0.195870 -1.396797 0.000000 0.000000 0.000000 1.123078 0.378151 1.106043 -0.255692 0.713292 -1.940617 0.294525 0.580043 5.806208 0.000000 0.000000 0.000000 2.764650 0.661010 -0.282015 2.716682 0.589680 0.002032 2.716999 -1.150809 0.940502 0.000000 0.000000 0.000000 -5.764871 -0.255435 -0.616397 -5.719850 1.363893 -0.453739 -5.651498 -0.792637 -2.614668 0.000000 0.000000 0.000000 
-958.880920 1012.558167 1097.837036 30.164537 -0.269975 -0.004459 0.312310 -0.948181 -0.537209 0.376249 0.129922 0.127617 0.363550 -0.209992 -0.094305 0.584753 0.834143 -1.927758 0.000000 0.000000 0.000000 -1.016686 2.709925 0.022080 -0.304112 2.937549 -2.190011 -0.200056 0.201110 -1.398565 0.000000 0.000000 0.000000 1.118357 0.373459 1.112402 -0.255251 0.711420 -1.944557 0.295098 0.588294 5.805190 0.000000 0.000000 0.000000 2.758804 0.668886 -0.278008 2.711237 0.587012 0.000186 2.711452 -1.152546 0.937528 0.000000 0.000000 0.000000 -5.769931 -0.254765 -0.617550 -5.724901 1.374523 -0.448518 -5.657026 -0.809309 -2.618158 0.000000 0.000000 0.000000 
-958.663635 1012.608643 1097.819946 30.182118 -0.262178 -0.002579 0.311304 -0.958460 -0.536539 0.375564 0.132147 0.125732 0.362890 -0.212839 -0.093025 0.583154 0.833694 -1.921992 0.000000 0.000000 0.000000 -1.013165 2.708833 0.028844 -0.305200 2.939033 -2.194400 -0.201523 0.211459 -1.401160 0.000000 0.000000 0.000000 1.116596 0.367773 1.117221 -0.254534 0.706910 -1.943855 0.295333 0.591816 5.802762 0.000000 0.000000 0.000000 2.752424 0.675934 -0.274057 2.705285 0.583142 -0.001623 2.705318 -1.152813 0.934669 0.000000 0.000000 0.000000 -5.775834 -0.255769 -0.618023 -5.730693 1.384808 -0.444200 -5.663282 -0.824681 -2.621897 0.000000 0.000000 0.000000 
-958.447998 1012.654358 1097.805054 30.197928 -0.254053 -0.000883 0.310840 -0.970154 -0.537315 0.375615 0.134671 0.125611 0.362858 -0.215933 -0.093165 0.581242 0.836537 -1.914407 0.000000 0.000000 0.000000 -1.012306 2.707344 0.037144 -0.306318 2.940116 -2.200113 -0.202734 0.220228 -1.403082 0.000000 0.000000 0.000000 1.113064 0.359745 1.122581 -0.253840 0.700167 -1.941721 0.295386 0.593093 5.802174 0.000000 0.000000 0.000000 2.746410 0.681222 -0.270258 2.699597 0.581250 -0.002381 2.699641 -1.153551 0.931893 0.000000 0.000000 0.000000 -5.781244 -0.255815 -0.617755 -5.736066 1.391940 -0.440261 -5.668951 -0.837601 -2.625220 0.000000 0.000000 0.000000 
-958.235840 1012.696350 1097.791992 30.210667 -0.245215 0.000145 0.310553 -0.982727 -0.538658 0.375914 0.136488 0.125956 0.363060 -0.218374 -0.093808 0.579370 0.842219 -1.906384 0.000000 0.000000 0.000000 -1.011949 2.704820 0.046925 -0.307458 2.940706 -2.208324 -0.203407 0.224719 -1.404369 0.000000 0.000000 0.000000 1.110208 0.348760 1.129344 -0.253127 0.690564 -1.939484 0.295329 0.593014 5.803084 0.000000 0.000000 0.000000 2.741397 0.683375 -0.266688 2.694725 0.582967 -0.001248 2.695126 -1.155386 0.929361 0.000000 0.000000 0.000000 -5.785754 -0.254625 -0.615602 -5.740563 1.394290 -0.437907 -5.673587 -0.847436 -2.627888 0.000000 0.000000 0.000000 
-958.026062 1012.733093 1097.781006 30.221766 -0.235710 0.001292 0.310012 -0.996731 -0.541507 0.376087 0.138012 0.126522 0.363151 -0.220607 -0.094012 0.577535 0.851173 -1.897851 0.000000 0.000000 0.000000 -1.010911 2.701732 0.057527 -0.308604 2.941170 -2.217754 -0.203801 0.227165 -1.405184 0.000000 0.000000 0.000000 1.107642 0.335721 1.135918 -0.252435 0.678500 -1.935642 0.295101 0.590752 5.806037 0.000000 0.000000 0.000000 2.736609 0.683535 -0.263551 2.689982 0.586392 0.000749 2.690908 -1.157861 0.926794 0.000000 0.000000 0.000000 -5.789961 -0.253107 -0.612762 -5.744786 1.393727 -0.436485 -5.677810 -0.854369 -2.630193 0.000000 0.000000 0.000000 
-957.822021 1012.765747 1097.770020 30.232307 -0.228411 0.001306 0.309125 -1.008076 -0.543053 0.375713 0.138809 0.126009 0.362772 -0.222576 -0.093289 0.575776 0.859967 -1.889604 0.000000 0.000000 0.000000 -1.011937 2.698118 0.066204 -0.309450 2.940117 -2.225445 -0.204269 0.228236 -1.407680 0.000000 0.000000 0.000000 1.103865 0.321557 1.141270 -0.251761 0.664847 -1.929503 0.294563 0.584197 5.809184 0.000000 0.000000 0.000000 2.732164 0.685719 -0.258824 2.685679 0.589936 0.002420 2.687126 -1.161298 0.924173 0.000000 0.000000 0.000000 -5.794123 -0.249266 -0.609204 -5.749036 1.392880 -0.434121 -5.681976 -0.861223 -2.632470 0.000000 0.000000 0.000000 
-957.622925 1012.794983 1097.759033 30.241849 -0.223717 0.000442 0.307084 -1.018357 -0.543565 0.374132 0.140927 0.125289 0.361133 -0.225426 -0.093498 0.574341 0.869839 -1.882305 0.000000 0.000000 0.000000 -1.011086 2.694250 0.072842 -0.309714 2.938153 -2.229474 -0.204991 0.227197 -1.413758 0.000000 0.000000 0.000000 1.100498 0.307101 1.146319 -0.251134 0.650124 -1.920055 0.293656 0.572543 5.812719 0.000000 0.000000 0.000000 2.727962 0.690697 -0.252526 2.681754 0.592897 0.003300 2.683665 -1.166402 0.921258 0.000000 0.000000 0.000000 -5.797967 -0.242418 -0.605667 -5.753126 1.391705 -0.430091 -5.685875 -0.868718 -2.634669 0.000000 0.000000 0.000000 
-957.428406 1012.818604 1097.748047 30.250548 -0.220358 -0.001042 0.304176 -1.028541 -0.544995 0.371788 0.143808 0.125602 0.358708 -0.227795 -0.093721 0.573103 0.880600 -1.875511 0.000000 0.000000 0.000000 -1.009476 2.689690 0.078285 -0.309678 2.935135 -2.231873 -0.205752 0.224594 -1.421389 0.000000 0.000000 0.000000 1.096867 0.291427 1.151176 -0.250567 0.633855 -1.908938 0.292471 0.556923 5.816885 0.000000 0.000000 0.000000 2.723981 0.696665 -0.245021 2.678166 0.596123 0.003541 2.680531 -1.173132 0.918065 0.000000 0.000000 0.000000 -5.801690 -0.234217 -0.601574 -5.757128 1.390230 -0.425643 -5.689627 -0.875727 -2.636772 0.000000 0.000000 0.000000 
-957.239868 1012.836853 1097.735962 30.257499 -0.217704 -0.003404 0.300817 -1.036057 -0.545924 0.368807 0.145131 0.125242 0.355691 -0.229600 -0.093837 0.571761 0.890056 -1.868551 0.000000 0.000000 0.000000 -1.008550 2.684452 0.084640 -0.309779 2.931601 -2.235010 -0.206480 0.222554 -1.428380 0.000000 0.000000 0.000000 1.094872 0.275397 1.155362 -0.250050 0.616646 -1.896943 0.291118 0.539253 5.821100 0.000000 0.000000 0.000000 2.720460 0.703361 -0.236598 2.675124 0.598049 0.003546 2.677843 -1.179538 0.915157 0.000000 0.000000 0.000000 -5.805026 -0.226138 -0.596542 -5.760648 1.390262 -0.421138 -5.692965 -0.882706 -2.638689 0.000000 0.000000 0.000000 
